<svg width="16" height="16" viewBox="0 0 16 16" fill="none" xmlns="http://www.w3.org/2000/svg">
<path d="M7.45188 13.0462C7.51304 13.135 7.59488 13.2076 7.69034 13.2578C7.78581 13.308 7.89204 13.3342 7.99988 13.3342C8.10773 13.3342 8.21396 13.308 8.30942 13.2578C8.40489 13.2076 8.48672 13.135 8.54788 13.0462L14.5479 4.3795C14.6173 4.27953 14.6581 4.16245 14.6656 4.04097C14.6732 3.91948 14.6474 3.79824 14.5909 3.69043C14.5344 3.58261 14.4494 3.49233 14.3452 3.4294C14.241 3.36647 14.1216 3.33331 13.9999 3.3335H1.99988C1.87844 3.334 1.75944 3.36759 1.65567 3.43067C1.5519 3.49375 1.46728 3.58392 1.41093 3.69149C1.35457 3.79906 1.32861 3.91996 1.33582 4.04118C1.34304 4.16241 1.38316 4.27937 1.45188 4.3795L7.45188 13.0462Z" fill="white"/>
</svg>
