<svg width="40" height="40" viewBox="0 0 40 40" fill="none" xmlns="http://www.w3.org/2000/svg">
<rect x="0.416667" y="0.416667" width="39.1667" height="39.1667" rx="19.5833" stroke="#242424" stroke-width="0.833333"/>
<path d="M19.878 31.924C13.2549 31.924 7.86426 26.5333 7.86426 19.9102C7.86426 13.2872 13.2549 7.89648 19.878 7.89648C26.5011 7.89648 31.8917 13.2872 31.8917 19.9102C31.8917 26.5333 26.5011 31.924 19.878 31.924ZM19.878 9.83418C14.3207 9.83418 9.80196 14.3529 9.80196 19.9102C9.80196 25.4676 14.3207 29.9863 19.878 29.9863C25.4353 29.9863 29.954 25.4676 29.954 19.9102C29.954 14.3529 25.4353 9.83418 19.878 9.83418Z" fill="white"/>
<path d="M16.3907 18.7281C14.1197 18.7281 11.6627 18.391 9.04293 17.7089C8.52362 17.5733 8.21359 17.0462 8.34923 16.5269C8.48487 16.0076 9.01193 15.6976 9.53123 15.8332C17.4681 17.8949 23.6803 16.5889 27.4937 12.0624C27.8386 11.6555 28.4509 11.6013 28.8579 11.9462C29.2687 12.2911 29.319 12.9034 28.9741 13.3103C25.9474 16.9028 21.669 18.7281 16.3907 18.7281Z" fill="white"/>
<path d="M11.5471 28.1301C11.3223 28.1301 11.1014 28.0526 10.9193 27.8976C10.5123 27.5488 10.4658 26.9365 10.8108 26.5296C16.4766 19.9065 23.8088 18.3331 30.928 22.2201C31.3969 22.4759 31.5713 23.065 31.3155 23.5339C31.0597 24.0028 30.4707 24.1772 30.0017 23.9214C21.4526 19.2593 15.2326 24.3438 12.2834 27.793C12.0935 28.0138 11.8222 28.1301 11.5471 28.1301Z" fill="white"/>
<path d="M23.0518 31.459C23.0169 31.459 22.982 31.459 22.9471 31.4551C22.4162 31.397 22.0325 30.9203 22.0907 30.3855C22.8464 23.4563 21.0637 16.4689 16.7969 9.60948C16.5139 9.15606 16.6535 8.55925 17.1069 8.27635C17.5603 7.99344 18.1571 8.13296 18.44 8.58638C22.9432 15.8218 24.8189 23.2276 24.0167 30.5987C23.9586 31.0947 23.5401 31.459 23.0518 31.459Z" fill="white"/>
</svg>
